HIERARCHY
ROOT Hips
{
  OFFSET 0 89.5177 0.535
  CHANNELS 6 Xposition Yposition Zposition Zrotation Xrotation Yrotation
  JOINT Spine
  {
    OFFSET 12.0259 -0.162855 1.69034e-005
    CHANNELS 3 Zrotation Xrotation Yrotation
    JOINT Spine1
    {
      OFFSET 15.3169 -0.0121922 0
      CHANNELS 3 Zrotation Xrotation Yrotation
      JOINT Spine2
      {
        OFFSET 15.3176 -0.0121908 0
        CHANNELS 3 Zrotation Xrotation Yrotation
        JOINT Neck
        {
          OFFSET 19.9142 1.56338 0
          CHANNELS 3 Zrotation Xrotation Yrotation
          JOINT Head
          {
            OFFSET 6.92651 0 0
            CHANNELS 3 Zrotation Xrotation Yrotation
            End Site
            {
              OFFSET 20.7666 0 0
            }
          }
          JOINT LeftShoulder
          {
            OFFSET -6.20654 0.708824 7.28219
            CHANNELS 3 Zrotation Xrotation Yrotation
            JOINT LeftArm
            {
              OFFSET 14.108 0 -1.52588e-005
              CHANNELS 3 Zrotation Xrotation Yrotation
              JOINT LeftForeArm
              {
                OFFSET 28.5802 0 0
                CHANNELS 3 Zrotation Xrotation Yrotation
                JOINT LeftHand
                {
                  OFFSET 27.092 0 0
                  CHANNELS 3 Zrotation Xrotation Yrotation
                  End Site
                  {
                    OFFSET 9.55928 -0.186424 0.145352
                  }
                }
              }
            }
          }
          JOINT RightShoulder
          {
            OFFSET -6.20654 0.708866 -7.28218
            CHANNELS 3 Zrotation Xrotation Yrotation
            JOINT RightArm
            {
              OFFSET 14.108 0 1.52588e-005
              CHANNELS 3 Zrotation Xrotation Yrotation
              JOINT RightForeArm
              {
                OFFSET 28.5802 0 0
                CHANNELS 3 Zrotation Xrotation Yrotation
                JOINT RightHand
                {
                  OFFSET 27.092 0 0
                  CHANNELS 3 Zrotation Xrotation Yrotation
                  End Site
                  {
                    OFFSET 9.55929 -0.186417 -0.145354
                  }
                }
              }
            }
          }
        }
      }
    }
  }
  JOINT LeftUpLeg
  {
    OFFSET 0.005 -0.535 8.837
    CHANNELS 3 Zrotation Xrotation Yrotation
    JOINT LeftLeg
    {
      OFFSET 39.9035 0 0
      CHANNELS 3 Zrotation Xrotation Yrotation
      JOINT LeftFoot
      {
        OFFSET 39.6689 0 0
        CHANNELS 3 Zrotation Xrotation Yrotation
        JOINT LeftToe
        {
          OFFSET 10.1624 13.6296 0
          CHANNELS 3 Zrotation Xrotation Yrotation
          End Site
          {
            OFFSET 8.38147 0 0
          }
        }
      }
    }
  }
  JOINT RightUpLeg
  {
    OFFSET 0.005 -0.535 -8.837
    CHANNELS 3 Zrotation Xrotation Yrotation
    JOINT RightLeg
    {
      OFFSET 39.9035 0 0
      CHANNELS 3 Zrotation Xrotation Yrotation
      JOINT RightFoot
      {
        OFFSET 39.6689 0 0
        CHANNELS 3 Zrotation Xrotation Yrotation
        JOINT RightToe
        {
          OFFSET 10.1624 13.6296 0
          CHANNELS 3 Zrotation Xrotation Yrotation
          End Site
          {
            OFFSET 8.38147 0 0
          }
        }
      }
    }
  }
}
MOTION
Frames:	12
Frame Time:	0.0333333
232.525 87.4758 -210.373 -165.95 -85.7843 104.853 -0.551816 -1.62856 -0.86849 -1.12894 -3.24802 -1.75352 -1.12894 -3.24802 -1.75353 -8.30748e-012 -9.0191e-006 -5.27751e-005 19.6231 -2.755 5.26047 -177.32 -27.1873 -84.1501 -20.777 -41.9356 11.1362 -7.23442 -3.18055e-015 -4.77083e-015 -31.4464 -52.8128 -34.8498 -178.267 20.1603 84.9835 -23.1678 35.478 -6.22615 -6.33861 9.54166e-015 -7.95139e-016 -64.7162 68.1851 67.834 -2.04516 8.42408 -178.945 -15.4721 -3.18055e-015 -7.95139e-016 17.549 4.47678 -2.11613 90 1.36969e-020 7.95139e-016 -7.93178 -10.7296 174.134 -21.0369 1.59028e-015 -7.95139e-016 17.574 -2.3406 4.39193 90 2.12325e-020 1.59028e-015 
232.536 87.4758 -210.363 -165.55 -85.7997 105.25 -0.550781 -1.62055 -0.867747 -1.12672 -3.23202 -1.75192 -1.12672 -3.23202 -1.75192 -8.30728e-012 -9.0191e-006 -5.27751e-005 19.6644 -2.81247 5.25469 -177.297 -27.1862 -84.0994 -20.9477 -41.7287 11.02 -7.0504 -1.59028e-014 -0 -30.9466 -52.8319 -34.3251 -178.254 20.1781 84.9497 -23.1235 35.4335 -6.29561 -6.26797 -6.36111e-015 9.93923e-016 -64.6074 68.2357 67.716 -2.03529 8.42578 -178.933 -15.487 0 -7.95139e-016 17.552 4.46019 -2.12262 90 -4.36498e-020 -0 -7.92629 -10.7111 174.146 -21.0541 -4.77083e-015 -7.95139e-016 17.5728 -2.33455 4.38193 90 -1.13746e-021 3.18055e-015 
232.542 87.476 -210.354 -165.22 -85.8087 105.572 -0.549288 -1.61563 -0.863159 -1.12529 -3.22224 -1.74266 -1.12529 -3.22224 -1.74267 -8.30728e-012 -9.0191e-006 -5.27751e-005 19.6753 -2.80395 5.21677 -177.306 -27.1878 -84.1201 -20.916 -41.8986 11.1259 -6.95963 -9.54166e-015 -3.18055e-015 -31.1522 -52.8709 -34.5482 -178.244 20.1837 84.9238 -23.0848 35.346 -6.31342 -6.2403 0 3.97569e-016 -64.5719 68.228 67.6838 -2.03834 8.4571 -178.919 -15.511 7.95139e-016 3.97569e-016 17.5598 4.47251 -2.12653 90 1.90316e-020 -0 -7.92408 -10.7015 174.159 -21.0611 -3.18056e-015 7.95139e-016 17.5733 -2.33772 4.37594 90 3.88251e-019 -0 
232.545 87.4765 -210.349 -165.257 -85.8375 105.532 -0.547882 -1.62659 -0.860171 -1.12519 -3.24419 -1.73817 -1.12519 -3.24419 -1.73818 -8.30708e-012 -9.0191e-006 -5.27751e-005 19.6584 -2.75584 5.20036 -177.271 -27.1905 -84.0448 -20.9111 -41.6209 10.9853 -7.12005 3.18055e-015 -0 -31.1888 -52.8167 -34.5783 -178.252 20.1317 84.9344 -22.9918 35.3465 -6.36325 -6.25276 9.54166e-015 -1.98785e-016 -64.5743 68.2271 67.6875 -2.02278 8.44848 -178.913 -15.5226 2.38542e-015 3.97569e-016 17.5609 4.4777 -2.13059 90 -1.46353e-019 -7.95139e-016 -7.8964 -10.7055 174.165 -21.0611 -1.59028e-015 -1.59028e-015 17.5748 -2.34359 4.37121 90 7.76503e-019 -0 
232.548 87.477 -210.348 -165.336 -85.8705 105.473 -0.546279 -1.63016 -0.857175 -1.12544 -3.25131 -1.74473 -1.12544 -3.25131 -1.74474 -8.30788e-012 -9.0191e-006 -5.27751e-005 19.6895 -2.73195 5.1952 -177.279 -27.1727 -84.0579 -20.8688 -41.6753 10.9975 -7.11626 -6.36111e-015 3.18055e-015 -31.3137 -52.8208 -34.7108 -178.246 20.1624 84.9244 -22.9946 35.3593 -6.35529 -6.24375 -1.27222e-014 -0 -64.5966 68.2078 67.713 -1.97658 8.43281 -178.932 -15.491 2.38542e-015 7.95139e-016 17.5424 4.47808 -2.13292 90 2.49292e-020 -0 -7.88406 -10.7251 174.14 -21.0866 1.59028e-015 -0 17.5765 -2.34676 4.36729 90 -4.36783e-019 -0 
232.55 87.4772 -210.342 -165.351 -85.8727 105.458 -0.544762 -1.63616 -0.854872 -1.12482 -3.25438 -1.73455 -1.12482 -3.25438 -1.73456 -8.30669e-012 -9.0191e-006 -5.27751e-005 19.6938 -2.7345 5.16439 -177.268 -27.1575 -84.0323 -20.8495 -41.5961 10.9649 -7.16471 6.36111e-015 -3.18055e-015 -31.2118 -52.8178 -34.6027 -178.251 20.1691 84.9378 -22.9492 35.4055 -6.34988 -6.29385 0 -3.97569e-016 -64.654 68.152 67.7773 -1.98367 8.44475 -178.933 -15.5006 1.59028e-015 -0 17.5432 4.4882 -2.13272 90 5.45978e-020 -1.19271e-015 -7.88696 -10.7193 174.14 -21.0896 -3.18056e-015 1.59028e-015 17.578 -2.3464 4.36365 90 6.43041e-019 3.18055e-015 
232.552 87.4773 -210.329 -165.307 -85.8592 105.5 -0.543395 -1.63994 -0.85395 -1.12985 -3.27091 -1.72456 -1.12985 -3.27091 -1.72457 -8.30788e-012 -9.0191e-006 -5.27751e-005 19.6846 -2.73712 5.18288 -177.263 -27.2387 -84.0379 -20.859 -41.7609 11.0242 -7.14772 1.27222e-014 -0 -31.1951 -52.7939 -34.5813 -178.261 20.1148 84.955 -22.845 35.4945 -6.37804 -6.38019 0 -7.95139e-016 -64.7281 68.1244 67.8535 -2.01759 8.46953 -178.922 -15.5238 7.95139e-016 3.97569e-016 17.5454 4.5046 -2.13235 90 -4.30716e-019 -0 -7.91187 -10.6828 174.15 -21.1016 0 -0 17.5767 -2.31383 4.36194 90 2.91188e-019 3.18055e-015 
232.552 87.4775 -210.314 -165.426 -85.8543 105.4 -0.542252 -1.63755 -0.855053 -1.13677 -3.26607 -1.72684 -1.13677 -3.26607 -1.72685 -8.30728e-012 -9.0191e-006 -5.27751e-005 19.642 -2.76108 5.23118 -177.28 -27.2369 -84.0737 -20.7724 -41.6446 11.1579 -7.2928 0 -0 -31.1064 -52.8248 -34.4927 -178.243 20.1716 84.9181 -22.8817 35.3897 -6.32077 -6.42745 3.18055e-015 1.39149e-015 -64.7991 68.1126 67.9242 -2.02493 8.42063 -178.944 -15.512 3.18055e-015 3.97569e-016 17.5302 4.47387 -2.13203 90 4.1991e-020 -3.97569e-016 -7.95588 -10.7107 174.122 -21.1392 1.59028e-015 -7.95139e-016 17.5795 -2.34299 4.3625 90 7.58303e-022 -1.59028e-015 
232.564 87.4778 -210.302 -165.521 -85.8668 105.28 -0.54149 -1.63802 -0.854987 -1.12005 -3.27449 -1.71684 -1.12005 -3.27449 -1.71685 -8.30728e-012 -9.0191e-006 -5.27751e-005 19.5884 -2.71956 5.29495 -177.255 -27.2385 -84.0192 -20.7759 -41.4993 11.1541 -7.44599 -3.18055e-015 -0 -31.3172 -52.823 -34.7149 -178.238 20.1761 84.904 -22.8114 35.3708 -6.38019 -6.49285 0 -2.5842e-015 -64.8743 68.092 67.9999 -2.06264 8.4303 -178.902 -15.5764 -3.18055e-015 -3.97569e-016 17.552 4.49407 -2.14256 90 3.35905e-020 3.97569e-016 -7.93396 -10.7223 174.16 -21.1201 0 2.38542e-015 17.5667 -2.34005 4.35127 90 -5.68728e-021 1.59028e-015 
232.576 87.4779 -210.287 -165.71 -85.8701 105.087 -0.541221 -1.63918 -0.854795 -1.10695 -3.2662 -1.71438 -1.10695 -3.2662 -1.71439 -8.30748e-012 -9.0191e-006 -5.27751e-005 19.5761 -2.79498 5.387 -177.274 -27.1589 -84.0439 -20.6507 -41.4666 11.2928 -7.44739 0 4.77083e-015 -31.2428 -52.8554 -34.6415 -178.214 20.2536 84.8521 -22.8364 35.3532 -6.3907 -6.47144 0 -3.97569e-016 -64.8341 68.1216 67.9586 -2.09509 8.41632 -178.886 -15.6109 -7.95139e-016 -7.95139e-016 17.5563 4.49875 -2.15062 90 -2.38392e-020 -7.95139e-016 -7.94319 -10.7147 174.172 -21.1298 -1.59028e-015 7.95139e-016 17.5653 -2.32729 4.34077 90 1.51661e-021 -0 
232.587 87.477 -210.275 -165.778 -85.8617 105.017 -0.541339 -1.6407 -0.854488 -1.1028 -3.28974 -1.71328 -1.1028 -3.28974 -1.71329 -8.30708e-012 -9.0191e-006 -5.27751e-005 19.5705 -2.78785 5.4814 -177.265 -27.1765 -84.0284 -20.6154 -41.4564 11.3341 -7.38397 -9.54166e-015 -0 -31.2306 -52.8467 -34.6272 -178.204 20.1691 84.8034 -22.7649 35.2994 -6.41391 -6.43894 6.36111e-015 1.19271e-015 -64.8025 68.1187 67.93 -2.13212 8.41473 -178.871 -15.6437 -7.95139e-016 -3.97569e-016 17.5616 4.50311 -2.15948 90 -5.45978e-020 3.97569e-016 -7.96677 -10.6899 174.184 -21.1491 1.59028e-015 -1.59028e-015 17.5676 -2.30616 4.33004 90 -1.13746e-021 -1.59028e-015 
232.599 87.4776 -210.267 -165.437 -85.8436 105.356 -0.541644 -1.64222 -0.854075 -1.10273 -3.28684 -1.71232 -1.10273 -3.28684 -1.71233 -8.30768e-012 -9.0191e-006 -5.27751e-005 19.6029 -2.82101 5.54214 -177.241 -27.1755 -83.9767 -20.6314 -41.497 11.3068 -7.30521 0 -1.59028e-015 -31.2484 -52.8291 -34.6432 -178.201 20.1603 84.7922 -22.7485 35.3227 -6.47632 -6.35953 -9.54166e-015 -1.19271e-015 -64.7296 68.183 67.853 -2.14541 8.43467 -178.861 -15.6424 -7.95139e-016 3.97569e-016 17.5666 4.50018 -2.16671 90 -4.85314e-020 -0 -7.99912 -10.7003 174.193 -21.1656 1.59028e-015 7.95139e-016 17.5659 -2.34585 4.31861 90 6.06643e-021 -0 
